<?xml version="1.0" standalone="no"?>
<!DOCTYPE svg PUBLIC "-//W3C//DTD SVG 20010904//EN"
 "http://www.w3.org/TR/2001/REC-SVG-20010904/DTD/svg10.dtd">
<svg version="1.0" xmlns="http://www.w3.org/2000/svg"
 width="512.000000pt" height="512.000000pt" viewBox="0 0 512.000000 512.000000"
 preserveAspectRatio="xMidYMid meet">

<g transform="translate(0.000000,512.000000) scale(0.100000,-0.100000)"
fill="#000000" stroke="none">
<path d="M403 5105 c-191 -42 -348 -200 -389 -394 -21 -99 -21 -4203 0 -4302
42 -196 198 -353 393 -394 102 -22 4204 -22 4306 0 195 41 351 198 393 394 21
100 21 4203 -1 4304 -41 195 -198 351 -394 393 -97 20 -4214 19 -4308 -1z
m1042 -1809 c189 -60 274 -163 283 -338 7 -137 -33 -224 -135 -298 l-54 -38
43 -30 c61 -42 136 -125 159 -177 28 -63 42 -186 28 -259 -36 -202 -215 -334
-494 -366 -298 -34 -730 109 -783 260 -21 61 9 77 105 57 l62 -13 5 40 c3 23
8 75 11 116 18 220 131 573 226 705 58 80 132 110 145 59 10 -40 -2 -229 -21
-319 -9 -44 -29 -143 -45 -220 -27 -132 -58 -444 -45 -464 10 -17 142 -34 223
-29 195 11 293 125 279 323 -7 91 -27 157 -60 199 -23 28 -26 29 -108 27 -70
-1 -91 2 -129 21 -82 42 -79 112 7 150 38 17 61 20 129 16 l82 -4 22 38 c29
52 42 143 30 208 -13 71 -50 117 -119 149 -51 23 -67 26 -181 26 -145 0 -189
-11 -352 -87 -116 -53 -161 -59 -166 -22 -7 49 125 175 243 233 119 59 190 72
370 67 139 -3 171 -7 240 -30z m1277 23 c82 -17 174 -67 219 -117 125 -142 97
-423 -72 -728 -68 -121 -146 -234 -220 -318 l-50 -55 42 -21 c70 -36 171 -52
242 -40 83 16 121 37 197 114 87 89 110 87 110 -8 0 -165 -174 -305 -403 -322
-99 -8 -173 9 -282 62 l-74 37 -37 -33 c-103 -90 -284 -123 -404 -74 -45 19
-68 41 -91 86 -46 90 -33 194 31 252 62 55 121 69 269 63 69 -4 140 -9 158
-13 31 -6 33 -4 91 84 141 215 239 455 249 613 7 105 -5 146 -57 193 -44 40
-87 51 -170 43 -82 -7 -145 -39 -220 -111 -71 -69 -102 -85 -126 -65 -33 27
12 151 82 229 46 51 121 98 192 121 67 21 240 25 324 8z m1435 -4 c163 -31
299 -130 340 -247 26 -76 24 -208 -4 -269 -24 -55 -81 -120 -129 -150 -19 -11
-34 -24 -34 -27 1 -4 25 -24 55 -45 64 -44 125 -121 151 -192 14 -37 19 -77
19 -155 0 -99 -2 -109 -33 -172 -60 -123 -194 -216 -367 -254 -94 -21 -287
-23 -384 -5 -252 48 -473 162 -497 255 -14 58 11 68 122 52 l51 -8 6 94 c19
284 158 703 266 801 51 46 89 57 108 32 29 -40 11 -212 -52 -496 -27 -118 -40
-213 -50 -339 -7 -96 -11 -177 -9 -179 11 -12 130 -31 196 -31 136 0 256 67
294 165 24 65 16 241 -15 307 -35 72 -50 82 -130 79 -126 -4 -191 28 -191 94
0 68 67 99 199 93 l76 -3 24 45 c37 66 41 188 9 249 -31 60 -80 97 -153 116
-132 34 -288 11 -460 -67 -114 -53 -161 -65 -184 -50 -43 29 97 180 230 247
47 24 154 61 199 68 64 11 275 6 347 -8z"/>
<path d="M2086 2041 c-24 -26 -17 -62 15 -80 33 -18 64 -10 114 33 l40 35 -37
15 c-52 22 -111 21 -132 -3z"/>
</g>
</svg>
